<svg xmlns="http://www.w3.org/2000/svg"  viewBox="0 10 50 30" width="600px" height="140px"><path  fill="#ffffff" d="M 9.300781 14 C 8 14 7 15 7 16.402344 C 7 17 7.199219 17.199219 7.300781 17.402344 C 7.578125 17.90625 8.859375 20 8.859375 20 C 8.925781 20.097656 8.9375 20.167969 8.957031 20.300781 C 9.058594 20.699219 8.757813 21 8.359375 21 L 2 21 L 2 24 L 10.800781 24 C 12.101563 24 13.199219 23 13.199219 21.597656 C 13.199219 21 13 20.800781 12.902344 20.597656 L 11.234375 18 C 11.175781 17.925781 11.132813 17.800781 11.132813 17.699219 C 11.132813 17.300781 11.433594 17 11.832031 17 L 16 17 L 16 24 L 20 24 L 20 17 L 24 17 L 24 14 Z M 26.300781 14 L 23.078125 24 L 26.300781 24 L 27 22 L 30.152344 22 L 30.847656 24 L 34 24 L 30.667969 14 Z M 35 14 L 35 24 L 38 24 L 38 20.890625 C 38.65625 21.515625 40.21875 23 41 23.699219 C 41.097656 23.800781 41.398438 24 41.796875 24 L 48 24 L 48 21 L 43.597656 21 C 43.371094 21 43.210938 20.933594 43.078125 20.839844 C 43.011719 20.777344 42.96875 20.738281 42.917969 20.691406 C 44.140625 20.144531 45 18.921875 45 17.5 C 45 15.574219 43.425781 14 41.5 14 Z M 38 17 L 41 17 C 41.277344 17 41.5 17.222656 41.5 17.5 C 41.5 17.777344 41.277344 18 41 18 L 38 18 Z M 28.566406 17.402344 L 29.574219 20 L 27.699219 20 Z M 2.398438 27 L 5.734375 37 L 8.101563 37 L 9.671875 32.449219 L 11.246094 37 L 13.597656 37 L 16.933594 27 L 13 27 L 12.03125 29.902344 L 11.066406 27 L 7.601563 27 L 6.546875 29.9375 L 5.566406 27 Z M 19.300781 27 L 16.078125 37 L 19.300781 37 L 20 35 L 23.152344 35 L 23.847656 37 L 27 37 L 23.667969 27 Z M 28 27 L 28 37 L 31 37 L 31 33.886719 C 31.65625 34.507813 33.222656 36 34 36.699219 C 34.101563 36.800781 34.402344 37 34.800781 37 L 44.097656 37 C 45.398438 37 46.5 36.097656 46.5 34.597656 C 46.5 34 46.300781 33.800781 46.199219 33.597656 L 44.53125 31.097656 C 44.5 31.03125 44.433594 30.902344 44.433594 30.800781 C 44.433594 30.402344 44.730469 30 45.03125 30 L 48 30 L 48 27 L 42.300781 27 C 41 27 39.902344 28.101563 39.902344 29.5 C 39.902344 30.101563 40.097656 30.300781 40.199219 30.5 C 40.480469 30.882813 42 33 42 33 C 42.042969 33.101563 42.097656 33.199219 42.097656 33.300781 C 42.097656 33.699219 41.800781 34 41.5 34 L 36.597656 34 C 36.425781 34 36.292969 33.957031 36.179688 33.898438 C 36.09375 33.804688 36.023438 33.730469 35.964844 33.667969 C 37.160156 33.109375 38 31.902344 38 30.5 C 38 28.574219 36.425781 27 34.5 27 Z M 31 30 L 34 30 C 34.277344 30 34.5 30.222656 34.5 30.5 C 34.5 30.777344 34.277344 31 34 31 L 31 31 Z M 21.566406 30.402344 L 22.574219 33 L 20.699219 33 Z"/></svg>